<svg width="28" height="28" viewBox="0 0 28 28" fill="none" xmlns="http://www.w3.org/2000/svg">
<path d="M10.5 3.5H4.66667C4.02233 3.5 3.5 4.02233 3.5 4.66667V10.5C3.5 11.1443 4.02233 11.6667 4.66667 11.6667H10.5C11.1443 11.6667 11.6667 11.1443 11.6667 10.5V4.66667C11.6667 4.02233 11.1443 3.5 10.5 3.5Z" fill="black" stroke="black" stroke-width="2" stroke-linecap="round" stroke-linejoin="round"/>
<path d="M10.5 16.3333H4.66667C4.02233 16.3333 3.5 16.8556 3.5 17.4999V23.3333C3.5 23.9776 4.02233 24.4999 4.66667 24.4999H10.5C11.1443 24.4999 11.6667 23.9776 11.6667 23.3333V17.4999C11.6667 16.8556 11.1443 16.3333 10.5 16.3333Z" fill="black" stroke="black" stroke-width="2" stroke-linecap="round" stroke-linejoin="round"/>
<path d="M23.333 3.5H17.4997C16.8553 3.5 16.333 4.02233 16.333 4.66667V10.5C16.333 11.1443 16.8553 11.6667 17.4997 11.6667H23.333C23.9773 11.6667 24.4997 11.1443 24.4997 10.5V4.66667C24.4997 4.02233 23.9773 3.5 23.333 3.5Z" fill="black" stroke="black" stroke-width="2" stroke-linecap="round" stroke-linejoin="round"/>
<path d="M23.333 16.3333H17.4997C16.8553 16.3333 16.333 16.8556 16.333 17.4999V23.3333C16.333 23.9776 16.8553 24.4999 17.4997 24.4999H23.333C23.9773 24.4999 24.4997 23.9776 24.4997 23.3333V17.4999C24.4997 16.8556 23.9773 16.3333 23.333 16.3333Z" fill="black" stroke="black" stroke-width="2" stroke-linecap="round" stroke-linejoin="round"/>
</svg>
