<svg width="24" height="24" viewBox="0 0 24 24" fill="none" xmlns="http://www.w3.org/2000/svg">
<path d="M5.86706 2.4001C4.94764 2.4001 4.06588 2.76534 3.41575 3.41546C2.76563 4.06559 2.40039 4.94735 2.40039 5.86677L2.40039 18.1334C2.40039 19.0528 2.76563 19.9346 3.41575 20.5847C4.06588 21.2349 4.94764 21.6001 5.86706 21.6001L18.1337 21.6001C19.0531 21.6001 19.9349 21.2349 20.585 20.5847C21.2352 19.9346 21.6004 19.0528 21.6004 18.1334L21.6004 5.86676C21.6004 4.94735 21.2352 4.06559 20.585 3.41546C19.9349 2.76533 19.0531 2.4001 18.1337 2.4001L5.86706 2.4001ZM20.0004 8.26676L9.06706 8.26677C8.85488 8.26677 8.6514 8.35105 8.50137 8.50108C8.35134 8.65111 8.26706 8.85459 8.26706 9.06676L8.26706 20.0001L5.86706 20.0001C4.83666 20.0001 4.00039 19.1638 4.00039 18.1334L4.00039 5.86676C4.00039 4.83636 4.83666 4.0001 5.86706 4.0001L18.1337 4.0001C18.6288 4.0001 19.1036 4.19677 19.4537 4.54683C19.8037 4.8969 20.0004 5.37169 20.0004 5.86676L20.0004 8.26676ZM14.1337 9.86676L14.1337 14.1334L9.86706 14.1334L9.86706 9.86676L14.1337 9.86676ZM15.7337 14.1334L15.7337 9.86676L20.0004 9.86676L20.0004 14.1334L15.7337 14.1334ZM14.1337 15.7334L14.1337 20.0001L9.86706 20.0001L9.86706 15.7334L14.1337 15.7334ZM15.7337 20.0001L15.7337 15.7334L20.0004 15.7334L20.0004 18.1334C20.0004 18.6285 19.8037 19.1033 19.4537 19.4534C19.1036 19.8034 18.6288 20.0001 18.1337 20.0001L15.7337 20.0001Z" fill="black" stroke="black" stroke-width="0.5"/>
</svg>
